<svg xmlns="http://www.w3.org/2000/svg" xmlns:xlink="http://www.w3.org/1999/xlink" width="333px" height="327px">
    <path fill-rule="evenodd" opacity="0.502" fill="rgb(255, 255, 255)" d="M1.252,157.088 C2.004,156.675 3.100,156.864 3.737,157.514 C4.386,158.178 4.517,159.270 4.041,160.069 C3.537,160.916 2.530,161.300 1.532,161.024 C1.316,160.965 1.101,160.904 0.886,160.844 C0.660,160.601 0.435,160.358 0.210,160.115 C0.168,159.930 0.128,159.745 0.083,159.560 C-0.167,158.515 0.247,157.639 1.252,157.088 ZM80.079,116.656 C80.892,117.523 80.840,118.861 79.963,119.653 C79.085,120.447 77.723,120.389 76.914,119.522 C76.112,118.664 76.163,117.299 77.026,116.515 C77.890,115.731 79.273,115.795 80.079,116.656 ZM64.723,130.407 C65.533,131.240 65.491,132.620 64.631,133.423 C63.770,134.228 62.384,134.193 61.568,133.347 C60.759,132.508 60.796,131.128 61.648,130.328 C62.491,129.537 63.911,129.574 64.723,130.407 ZM48.462,145.038 C49.271,145.893 49.221,147.247 48.351,148.047 C47.487,148.840 46.088,148.796 45.284,147.949 C44.491,147.114 44.544,145.707 45.396,144.926 C46.255,144.139 47.660,144.191 48.462,145.038 ZM33.134,158.892 C33.931,159.778 33.848,161.111 32.946,161.883 C32.045,162.654 30.697,162.562 29.903,161.675 C29.117,160.797 29.201,159.440 30.089,158.674 C30.981,157.907 32.335,158.004 33.134,158.892 ZM17.803,172.664 C18.429,173.368 18.501,174.419 17.978,175.220 C17.432,176.055 16.415,176.400 15.445,176.075 C15.229,176.002 15.018,175.916 14.804,175.836 C14.624,175.642 14.444,175.448 14.264,175.254 C14.201,175.038 14.132,174.823 14.078,174.605 C13.845,173.666 14.260,172.679 15.068,172.238 C15.989,171.734 17.134,171.912 17.803,172.664 ZM126.868,74.625 C126.073,73.756 126.138,72.396 127.012,71.621 C127.876,70.854 129.293,70.928 130.076,71.780 C130.868,72.642 130.795,74.009 129.916,74.788 C129.030,75.572 127.668,75.499 126.868,74.625 ZM31.749,187.685 C32.395,188.354 32.516,189.468 32.027,190.243 C31.485,191.103 30.504,191.466 29.506,191.175 C29.289,191.111 29.074,191.041 28.858,190.974 C28.633,190.731 28.408,190.489 28.183,190.246 C28.140,190.029 28.098,189.812 28.056,189.595 C27.863,188.594 28.338,187.658 29.257,187.225 C30.065,186.844 31.127,187.040 31.749,187.685 ZM205.018,59.744 C205.839,60.620 205.796,61.941 204.919,62.740 C204.041,63.540 202.692,63.483 201.874,62.610 C201.061,61.745 201.100,60.388 201.961,59.600 C202.817,58.816 204.208,58.881 205.018,59.744 ZM61.115,189.030 C61.926,189.912 61.865,191.239 60.977,192.026 C60.092,192.811 58.736,192.738 57.929,191.862 C57.131,190.996 57.190,189.620 58.058,188.850 C58.929,188.078 60.314,188.159 61.115,189.030 ZM45.829,202.855 C46.462,203.595 46.498,204.712 45.914,205.500 C45.356,206.255 44.331,206.556 43.416,206.228 C43.200,206.150 42.990,206.054 42.777,205.967 C42.597,205.773 42.417,205.579 42.237,205.384 C42.174,205.136 42.100,204.889 42.051,204.638 C41.870,203.693 42.343,202.752 43.195,202.347 C44.123,201.906 45.194,202.112 45.829,202.855 ZM89.523,163.457 C88.745,162.593 88.827,161.187 89.698,160.434 C90.571,159.681 92.011,159.769 92.776,160.624 C93.555,161.495 93.466,162.869 92.582,163.638 C91.692,164.412 90.308,164.330 89.523,163.457 ZM73.292,178.118 C72.496,177.287 72.539,175.873 73.386,175.086 C74.231,174.300 75.655,174.351 76.459,175.195 C77.273,176.050 77.229,177.406 76.362,178.207 C75.500,179.004 74.103,178.963 73.292,178.118 ZM104.896,149.662 C104.106,148.795 104.174,147.410 105.045,146.649 C105.925,145.881 107.306,145.967 108.104,146.841 C108.905,147.719 108.835,149.059 107.946,149.840 C107.059,150.619 105.696,150.540 104.896,149.662 ZM186.466,76.392 C185.694,75.537 185.776,74.117 186.640,73.364 C187.506,72.609 188.956,72.694 189.720,73.543 C190.502,74.414 190.416,75.787 189.531,76.560 C188.645,77.333 187.248,77.256 186.466,76.392 ZM170.242,91.042 C169.444,90.211 169.485,88.801 170.331,88.012 C171.177,87.224 172.592,87.275 173.401,88.123 C174.219,88.981 174.178,90.326 173.308,91.132 C172.448,91.928 171.054,91.887 170.242,91.042 ZM158.060,101.923 C158.864,102.778 158.810,104.143 157.941,104.934 C157.066,105.730 155.701,105.674 154.889,104.809 C154.083,103.949 154.126,102.578 154.985,101.792 C155.831,101.020 157.267,101.080 158.060,101.923 ZM123.339,136.013 C122.475,136.809 121.081,136.768 120.272,135.921 C119.475,135.087 119.517,133.679 120.363,132.891 C121.205,132.107 122.635,132.159 123.438,133.001 C124.249,133.852 124.204,135.215 123.339,136.013 ZM142.738,115.744 C143.522,116.614 143.438,117.982 142.553,118.755 C141.666,119.529 140.274,119.450 139.491,118.581 C138.716,117.719 138.796,116.306 139.664,115.556 C140.540,114.797 141.963,114.885 142.738,115.744 ZM59.791,217.891 C60.423,218.584 60.510,219.665 59.998,220.443 C59.435,221.297 58.458,221.641 57.474,221.328 C57.258,221.258 57.045,221.179 56.831,221.104 C56.651,220.911 56.471,220.716 56.291,220.523 C56.222,220.306 56.144,220.092 56.086,219.873 C55.832,218.906 56.270,217.902 57.139,217.444 C58.007,216.987 59.140,217.178 59.791,217.891 ZM71.940,206.955 C71.128,206.080 71.185,204.761 72.068,203.961 C72.955,203.159 74.283,203.221 75.107,204.102 C75.930,204.982 75.875,206.289 74.983,207.092 C74.097,207.891 72.752,207.830 71.940,206.955 ZM215.862,77.677 C215.048,76.796 215.107,75.483 215.997,74.689 C216.888,73.892 218.215,73.959 219.034,74.842 C219.852,75.723 219.793,77.034 218.900,77.831 C218.007,78.629 216.678,78.562 215.862,77.677 ZM73.742,232.919 C74.368,233.557 74.517,234.596 74.097,235.391 C73.662,236.214 72.664,236.678 71.726,236.480 C71.441,236.420 71.165,236.323 70.885,236.242 C70.660,236.000 70.435,235.758 70.210,235.515 C70.154,235.265 70.089,235.018 70.045,234.767 C69.883,233.829 70.370,232.911 71.248,232.484 C72.053,232.092 73.112,232.277 73.742,232.919 ZM247.022,104.988 C247.843,105.860 247.801,107.186 246.927,107.986 C246.055,108.784 244.697,108.728 243.881,107.859 C243.066,106.991 243.105,105.643 243.968,104.852 C244.829,104.063 246.209,104.125 247.022,104.988 ZM150.085,192.062 C150.901,192.931 150.855,194.265 149.980,195.062 C149.106,195.857 147.739,195.801 146.927,194.936 C146.123,194.079 146.168,192.708 147.027,191.924 C147.886,191.139 149.277,191.202 150.085,192.062 ZM103.082,234.235 C103.916,235.100 103.892,236.421 103.026,237.234 C102.166,238.041 100.792,238.003 99.974,237.151 C99.150,236.293 99.173,234.951 100.026,234.140 C100.869,233.339 102.260,233.382 103.082,234.235 ZM87.821,248.082 C88.468,248.819 88.513,249.912 87.930,250.725 C87.378,251.494 86.373,251.802 85.444,251.481 C85.228,251.407 85.017,251.318 84.804,251.235 C84.624,251.041 84.444,250.847 84.264,250.653 C84.196,250.405 84.115,250.159 84.064,249.907 C83.869,248.962 84.333,248.010 85.179,247.601 C86.101,247.153 87.177,247.349 87.821,248.082 ZM115.299,223.365 C114.502,222.531 114.546,221.124 115.395,220.337 C116.246,219.548 117.660,219.597 118.465,220.441 C119.278,221.295 119.234,222.652 118.369,223.453 C117.510,224.249 116.107,224.209 115.299,223.365 ZM131.524,208.698 C130.747,207.828 130.835,206.435 131.713,205.681 C132.592,204.925 134.022,205.016 134.787,205.876 C135.564,206.750 135.472,208.125 134.584,208.890 C133.689,209.661 132.305,209.574 131.524,208.698 ZM165.496,178.303 C166.276,179.184 166.183,180.545 165.289,181.311 C164.394,182.077 162.995,181.986 162.226,181.111 C161.460,180.240 161.555,178.833 162.430,178.090 C163.322,177.333 164.722,177.430 165.496,178.303 ZM184.746,160.992 C185.530,161.861 185.444,163.233 184.558,164.004 C183.668,164.777 182.275,164.695 181.495,163.825 C180.718,162.957 180.802,161.560 181.675,160.805 C182.553,160.045 183.968,160.132 184.746,160.992 ZM196.871,150.027 C196.078,149.158 196.148,147.785 197.024,147.020 C197.893,146.258 199.314,146.341 200.092,147.197 C200.880,148.066 200.802,149.435 199.920,150.207 C199.029,150.986 197.671,150.906 196.871,150.027 ZM215.295,136.397 C214.422,137.184 213.026,137.126 212.229,136.268 C211.442,135.422 211.503,134.017 212.361,133.244 C213.228,132.463 214.624,132.529 215.425,133.389 C216.233,134.256 216.174,135.604 215.295,136.397 ZM231.715,118.778 C232.502,119.636 232.426,121.021 231.551,121.796 C230.671,122.575 229.272,122.509 228.483,121.650 C227.705,120.802 227.777,119.390 228.637,118.625 C229.499,117.859 230.937,117.931 231.715,118.778 ZM101.833,263.178 C102.420,263.859 102.505,264.929 102.029,265.662 C101.470,266.526 100.498,266.881 99.505,266.582 C99.288,266.517 99.074,266.443 98.858,266.373 C98.633,266.131 98.408,265.888 98.183,265.645 C98.143,265.429 98.104,265.212 98.064,264.996 C97.879,263.994 98.363,263.052 99.278,262.633 C100.134,262.241 101.227,262.474 101.833,263.178 ZM178.093,222.229 C178.910,223.103 178.860,224.430 177.980,225.227 C177.104,226.021 175.742,225.964 174.930,225.099 C174.122,224.238 174.170,222.877 175.037,222.089 C175.904,221.300 177.283,221.363 178.093,222.229 ZM146.357,253.629 C145.487,254.419 144.093,254.368 143.291,253.516 C142.498,252.673 142.556,251.276 143.418,250.493 C144.282,249.707 145.683,249.766 146.484,250.621 C147.290,251.481 147.233,252.835 146.357,253.629 ZM162.750,235.996 C163.551,236.839 163.497,238.221 162.632,239.012 C161.760,239.809 160.382,239.763 159.571,238.909 C158.766,238.062 158.814,236.687 159.676,235.891 C160.525,235.106 161.951,235.155 162.750,235.996 ZM131.134,264.451 C131.940,265.335 131.871,266.662 130.978,267.444 C130.086,268.225 128.739,268.147 127.933,267.266 C127.135,266.395 127.204,265.035 128.086,264.263 C128.975,263.485 130.331,263.569 131.134,264.451 ZM115.731,278.149 C116.398,278.814 116.534,279.871 116.060,280.702 C115.611,281.489 114.665,281.917 113.754,281.733 C113.470,281.677 113.192,281.586 112.912,281.512 C112.687,281.269 112.462,281.026 112.236,280.783 C112.176,280.534 112.105,280.287 112.058,280.035 C111.888,279.123 112.326,278.228 113.145,277.793 C114.011,277.333 115.058,277.477 115.731,278.149 ZM129.807,293.308 C130.436,294.006 130.516,295.072 129.998,295.860 C129.438,296.711 128.457,297.052 127.473,296.733 C127.257,296.663 127.045,296.580 126.831,296.504 C126.651,296.310 126.471,296.116 126.290,295.922 C126.225,295.706 126.150,295.491 126.094,295.273 C125.846,294.299 126.289,293.297 127.159,292.853 C128.049,292.399 129.158,292.589 129.807,293.308 ZM141.961,282.376 C141.144,281.506 141.189,280.181 142.061,279.379 C142.934,278.577 144.283,278.630 145.105,279.500 C145.930,280.371 145.886,281.687 145.006,282.492 C144.130,283.294 142.773,283.242 141.961,282.376 ZM285.878,153.095 C285.063,152.221 285.114,150.896 285.993,150.102 C286.875,149.306 288.216,149.367 289.035,150.243 C289.852,151.116 289.801,152.438 288.920,153.234 C288.037,154.032 286.694,153.970 285.878,153.095 ZM143.758,308.335 C144.406,309.001 144.531,310.103 144.048,310.892 C143.525,311.746 142.530,312.119 141.532,311.835 C141.316,311.773 141.101,311.706 140.885,311.642 C140.660,311.399 140.435,311.156 140.209,310.914 C140.165,310.697 140.118,310.480 140.075,310.263 C139.879,309.268 140.349,308.331 141.266,307.889 C142.070,307.502 143.133,307.692 143.758,308.335 ZM269.664,222.249 C270.503,222.783 270.839,223.766 270.525,224.741 C270.437,225.014 270.372,225.294 270.296,225.571 C270.148,225.704 269.999,225.838 269.851,225.971 C269.566,226.011 269.277,226.038 268.995,226.095 C267.986,226.300 267.013,225.867 266.554,224.999 C266.128,224.194 266.317,223.092 266.987,222.465 C267.686,221.811 268.833,221.719 269.664,222.249 ZM188.040,295.493 C188.878,295.993 189.243,297.002 188.952,297.976 C188.871,298.245 188.827,298.525 188.767,298.799 C188.619,298.932 188.470,299.065 188.322,299.198 C188.033,299.254 187.743,299.300 187.457,299.366 C186.431,299.600 185.479,299.198 185.003,298.322 C184.529,297.451 184.710,296.354 185.433,295.715 C186.117,295.110 187.238,295.015 188.040,295.493 ZM172.633,309.264 C173.537,309.809 173.905,310.807 173.581,311.815 C173.493,312.088 173.427,312.369 173.350,312.646 C173.202,312.779 173.054,312.912 172.906,313.045 C172.620,313.086 172.332,313.112 172.050,313.169 C171.039,313.374 170.066,312.944 169.606,312.076 C169.164,311.243 169.392,310.082 170.115,309.476 C170.798,308.903 171.883,308.812 172.633,309.264 ZM157.488,323.178 C158.181,323.672 158.505,324.616 158.263,325.465 C158.164,325.811 158.044,326.150 157.934,326.492 C157.835,326.581 157.736,326.670 157.638,326.759 C156.680,326.986 155.724,327.189 154.804,326.634 C154.624,326.440 154.444,326.246 154.263,326.052 C154.197,325.803 154.119,325.555 154.068,325.303 C153.901,324.474 154.268,323.576 154.942,323.138 C155.724,322.631 156.742,322.647 157.488,323.178 ZM201.228,283.654 C200.802,282.807 200.991,281.749 201.683,281.121 C202.398,280.471 203.524,280.396 204.371,280.941 C205.173,281.457 205.511,282.424 205.218,283.358 C205.120,283.668 205.022,283.977 204.924,284.287 C204.826,284.375 204.727,284.464 204.628,284.553 C204.305,284.625 203.983,284.698 203.660,284.768 C202.651,284.986 201.673,284.537 201.228,283.654 ZM216.598,269.886 C216.160,269.073 216.336,267.996 217.011,267.354 C217.697,266.702 218.893,266.596 219.687,267.115 C220.529,267.666 220.866,268.640 220.560,269.610 C220.474,269.883 220.413,270.163 220.341,270.440 C220.192,270.573 220.044,270.706 219.896,270.839 C219.610,270.883 219.321,270.914 219.039,270.973 C218.031,271.185 217.069,270.760 216.598,269.886 ZM231.978,256.142 C231.505,255.280 231.685,254.174 232.403,253.530 C233.095,252.908 234.175,252.814 235.003,253.302 C235.859,253.806 236.221,254.784 235.932,255.772 C235.854,256.040 235.814,256.319 235.757,256.593 C235.609,256.726 235.461,256.860 235.312,256.993 C235.023,257.050 234.733,257.100 234.446,257.167 C233.418,257.404 232.451,257.005 231.978,256.142 ZM251.195,238.760 C250.773,237.907 250.967,236.852 251.662,236.231 C252.356,235.610 253.445,235.517 254.269,236.008 C255.122,236.517 255.490,237.515 255.182,238.489 C255.083,238.799 254.980,239.108 254.879,239.418 C254.781,239.507 254.682,239.596 254.583,239.684 C254.260,239.753 253.938,239.823 253.615,239.891 C252.599,240.103 251.638,239.654 251.195,238.760 ZM281.947,211.249 C281.475,210.388 281.658,209.279 282.379,208.641 C283.073,208.027 284.175,207.934 284.982,208.421 C285.825,208.930 286.187,209.926 285.896,210.901 C285.816,211.170 285.772,211.450 285.712,211.725 C285.564,211.858 285.416,211.991 285.267,212.124 C284.979,212.180 284.689,212.227 284.402,212.291 C283.376,212.524 282.427,212.124 281.947,211.249 ZM298.214,196.673 C297.742,195.811 297.918,194.694 298.629,194.046 C299.348,193.392 300.455,193.319 301.315,193.868 C302.120,194.383 302.459,195.347 302.164,196.283 C302.066,196.593 301.968,196.903 301.870,197.212 C301.771,197.301 301.672,197.390 301.573,197.479 C301.251,197.550 300.929,197.624 300.606,197.693 C299.637,197.903 298.658,197.484 298.214,196.673 ZM313.539,182.812 C313.102,182.025 313.284,180.919 313.956,180.280 C314.615,179.655 315.769,179.524 316.549,179.986 C317.450,180.520 317.824,181.525 317.506,182.536 C317.420,182.809 317.359,183.089 317.286,183.366 C317.138,183.499 316.990,183.632 316.842,183.765 C316.555,183.810 316.266,183.840 315.983,183.900 C314.969,184.111 314.030,183.698 313.539,182.812 ZM328.881,168.974 C328.447,168.082 328.681,166.979 329.430,166.387 C330.238,165.749 331.516,165.740 332.290,166.447 C332.948,167.049 333.115,167.834 332.875,168.698 C332.801,168.967 332.759,169.245 332.703,169.519 C332.554,169.652 332.406,169.786 332.258,169.919 C331.968,169.976 331.677,170.026 331.390,170.093 C330.333,170.338 329.328,169.893 328.881,168.974 ZM315.200,154.392 C314.408,153.527 314.492,152.184 315.387,151.392 C316.266,150.615 317.726,150.644 318.450,151.513 C319.178,152.388 319.195,153.709 318.257,154.528 C317.362,155.311 315.992,155.257 315.200,154.392 ZM256.070,207.490 C256.879,208.342 256.826,209.688 255.950,210.488 C255.063,211.299 253.732,211.256 252.912,210.392 C252.087,209.523 252.136,208.216 253.022,207.405 C253.909,206.594 255.254,206.632 256.070,207.490 ZM155.941,297.436 C155.131,296.555 155.204,295.254 156.106,294.453 C157.015,293.647 158.315,293.714 159.135,294.610 C159.950,295.501 159.881,296.789 158.975,297.590 C158.075,298.386 156.752,298.319 155.941,297.436 ZM187.729,266.052 C188.620,265.261 189.991,265.321 190.779,266.186 C191.568,267.052 191.486,268.399 190.597,269.188 C189.704,269.979 188.346,269.916 187.549,269.046 C186.751,268.174 186.831,266.850 187.729,266.052 ZM171.299,283.687 C170.493,282.840 170.554,281.490 171.436,280.686 C172.323,279.876 173.668,279.917 174.481,280.778 C175.290,281.634 175.234,282.974 174.356,283.775 C173.479,284.575 172.107,284.536 171.299,283.687 ZM202.948,255.279 C202.119,254.412 202.162,253.110 203.048,252.292 C203.936,251.471 205.256,251.508 206.082,252.378 C206.909,253.247 206.868,254.554 205.988,255.364 C205.107,256.176 203.770,256.139 202.948,255.279 ZM221.326,241.587 C220.442,242.388 219.080,242.342 218.273,241.484 C217.471,240.631 217.536,239.286 218.420,238.486 C219.311,237.679 220.656,237.725 221.465,238.591 C222.274,239.455 222.212,240.785 221.326,241.587 ZM240.704,221.268 C241.523,222.118 241.480,223.458 240.608,224.269 C239.732,225.084 238.379,225.057 237.556,224.209 C236.737,223.366 236.781,222.021 237.654,221.211 C238.533,220.393 239.886,220.419 240.704,221.268 ZM268.263,196.625 C267.444,195.782 267.490,194.438 268.366,193.626 C269.249,192.805 270.585,192.835 271.409,193.692 C272.235,194.552 272.194,195.874 271.318,196.686 C270.441,197.499 269.086,197.472 268.263,196.625 ZM299.833,168.125 C299.036,167.224 299.137,165.946 300.068,165.152 C300.986,164.370 302.282,164.469 303.090,165.383 C303.883,166.280 303.782,167.569 302.857,168.357 C301.942,169.136 300.639,169.037 299.833,168.125 ZM284.452,181.935 C283.683,181.045 283.800,179.719 284.715,178.941 C285.621,178.171 287.008,178.267 287.762,179.151 C288.527,180.047 288.410,181.379 287.501,182.150 C286.601,182.912 285.212,182.814 284.452,181.935 ZM301.184,139.293 C300.410,138.422 300.501,137.043 301.383,136.279 C302.256,135.524 303.721,135.599 304.466,136.438 C305.224,137.289 305.121,138.699 304.247,139.465 C303.362,140.238 301.955,140.160 301.184,139.293 ZM273.703,164.005 C274.501,164.849 274.440,166.228 273.568,167.019 C272.694,167.812 271.305,167.764 270.505,166.913 C269.712,166.068 269.770,164.685 270.633,163.898 C271.495,163.111 272.904,163.161 273.703,164.005 ZM257.443,178.647 C258.241,179.518 258.168,180.862 257.280,181.648 C256.399,182.429 255.003,182.362 254.221,181.500 C253.437,180.638 253.514,179.261 254.389,178.488 C255.273,177.706 256.645,177.778 257.443,178.647 ZM207.481,223.528 C208.276,224.398 208.198,225.747 207.309,226.531 C206.425,227.310 205.029,227.239 204.249,226.377 C203.466,225.510 203.546,224.140 204.424,223.365 C205.307,222.586 206.689,222.659 207.481,223.528 ZM188.898,240.144 C188.111,239.267 188.193,237.917 189.081,237.148 C189.974,236.373 191.322,236.459 192.123,237.343 C192.920,238.223 192.839,239.558 191.942,240.334 C191.040,241.114 189.692,241.030 188.898,240.144 ZM226.752,206.240 C227.536,207.112 227.447,208.472 226.554,209.246 C225.660,210.021 224.276,209.940 223.497,209.068 C222.718,208.194 222.807,206.826 223.693,206.059 C224.579,205.290 225.972,205.373 226.752,206.240 ZM242.063,192.406 C242.872,193.252 242.824,194.614 241.956,195.413 C241.083,196.218 239.725,196.171 238.909,195.308 C238.094,194.446 238.135,193.109 239.003,192.309 C239.859,191.518 241.255,191.562 242.063,192.406 ZM160.363,268.697 C159.499,269.493 158.101,269.450 157.299,268.604 C156.501,267.763 156.555,266.376 157.416,265.588 C158.282,264.795 159.670,264.842 160.475,265.692 C161.287,266.548 161.237,267.892 160.363,268.697 ZM176.766,251.094 C177.559,251.947 177.487,253.320 176.610,254.105 C175.729,254.893 174.348,254.831 173.553,253.970 C172.759,253.109 172.826,251.743 173.701,250.960 C174.572,250.180 175.975,250.242 176.766,251.094 ZM271.858,137.993 C271.056,137.113 271.125,135.765 272.010,134.993 C272.901,134.217 274.253,134.302 275.058,135.186 C275.863,136.070 275.793,137.394 274.899,138.178 C274.005,138.961 272.668,138.880 271.858,137.993 ZM287.235,124.269 C286.435,123.446 286.475,122.035 287.322,121.243 C288.149,120.469 289.628,120.499 290.415,121.305 C291.199,122.107 291.147,123.551 290.305,124.339 C289.447,125.143 288.055,125.111 287.235,124.269 ZM228.058,177.322 C228.869,178.168 228.827,179.535 227.964,180.331 C227.092,181.136 225.730,181.093 224.913,180.235 C224.095,179.374 224.129,178.028 224.990,177.224 C225.838,176.432 227.250,176.478 228.058,177.322 ZM190.245,211.291 C189.466,210.430 189.549,209.031 190.424,208.273 C191.310,207.505 192.707,207.588 193.489,208.455 C194.277,209.329 194.194,210.686 193.306,211.462 C192.420,212.235 191.029,212.157 190.245,211.291 ZM209.492,193.981 C208.719,193.109 208.812,191.715 209.695,190.965 C210.588,190.205 211.990,190.299 212.760,191.169 C213.538,192.048 213.443,193.409 212.550,194.177 C211.656,194.945 210.268,194.856 209.492,193.981 ZM243.434,163.559 C244.238,164.427 244.175,165.772 243.294,166.563 C242.421,167.347 241.024,167.287 240.231,166.431 C239.442,165.581 239.507,164.187 240.372,163.410 C241.247,162.626 242.633,162.693 243.434,163.559 ZM259.742,148.967 C260.516,149.848 260.420,151.214 259.530,151.981 C258.639,152.748 257.241,152.662 256.468,151.792 C255.700,150.929 255.794,149.524 256.670,148.773 C257.552,148.018 258.988,148.108 259.742,148.967 ZM113.956,252.212 C113.134,251.338 113.185,250.032 114.072,249.224 C114.967,248.410 116.279,248.460 117.107,249.341 C117.941,250.227 117.891,251.507 116.991,252.322 C116.093,253.135 114.779,253.088 113.956,252.212 ZM129.255,238.400 C128.474,237.524 128.569,236.181 129.468,235.398 C130.364,234.616 131.722,234.694 132.512,235.573 C133.303,236.452 133.212,237.773 132.308,238.565 C131.415,239.346 130.032,239.271 129.255,238.400 ZM145.575,223.833 C144.760,222.978 144.809,221.637 145.685,220.832 C146.563,220.024 147.928,220.057 148.743,220.906 C149.552,221.750 149.499,223.106 148.624,223.910 C147.740,224.724 146.391,224.690 145.575,223.833 ZM160.946,210.036 C160.118,209.170 160.157,207.857 161.034,207.044 C161.915,206.229 163.249,206.266 164.073,207.128 C164.905,207.998 164.866,209.300 163.985,210.114 C163.097,210.934 161.773,210.900 160.946,210.036 ZM195.678,175.929 C196.565,175.134 197.932,175.190 198.729,176.055 C199.532,176.925 199.460,178.251 198.566,179.052 C197.672,179.853 196.319,179.799 195.518,178.929 C194.716,178.061 194.788,176.726 195.678,175.929 ZM176.284,196.253 C175.469,195.402 175.518,194.057 176.394,193.249 C177.274,192.438 178.624,192.473 179.445,193.328 C180.267,194.185 180.219,195.511 179.337,196.324 C178.455,197.137 177.100,197.105 176.284,196.253 ZM210.893,165.132 C210.079,164.260 210.138,162.944 211.026,162.142 C211.913,161.343 213.271,161.395 214.076,162.259 C214.884,163.126 214.819,164.453 213.930,165.255 C213.036,166.061 211.710,166.007 210.893,165.132 ZM257.850,122.906 C257.039,122.010 257.117,120.724 258.032,119.924 C258.938,119.132 260.246,119.212 261.061,120.110 C261.871,121.004 261.792,122.287 260.877,123.088 C259.967,123.885 258.666,123.807 257.850,122.906 ZM242.479,136.726 C241.690,135.856 241.775,134.514 242.669,133.723 C243.559,132.936 244.941,133.001 245.725,133.868 C246.512,134.739 246.426,136.082 245.531,136.870 C244.638,137.657 243.264,137.592 242.479,136.726 ZM226.197,151.316 C225.415,150.429 225.514,149.103 226.421,148.317 C227.322,147.535 228.669,147.620 229.462,148.509 C230.255,149.398 230.160,150.706 229.246,151.497 C228.347,152.276 226.971,152.194 226.197,151.316 ZM273.184,109.136 C272.401,108.263 272.492,106.914 273.387,106.132 C274.269,105.362 275.702,105.428 276.460,106.273 C277.224,107.125 277.123,108.511 276.239,109.289 C275.346,110.076 273.966,110.007 273.184,109.136 ZM259.203,94.073 C258.419,93.227 258.485,91.811 259.343,91.047 C260.189,90.293 261.679,90.352 262.439,91.169 C263.209,91.995 263.130,93.427 262.272,94.203 C261.401,94.990 259.997,94.931 259.203,94.073 ZM85.931,222.026 C85.123,221.147 85.194,219.835 86.092,219.038 C86.1000,218.233 88.305,218.303 89.126,219.201 C89.940,220.090 89.872,221.389 88.970,222.187 C88.075,222.978 86.742,222.908 85.931,222.026 ZM229.885,92.784 C229.051,91.903 229.094,90.614 229.984,89.797 C230.872,88.982 232.193,89.029 233.019,89.905 C233.849,90.785 233.807,92.081 232.922,92.891 C232.035,93.704 230.711,93.657 229.885,92.784 ZM245.228,79.021 C244.413,78.182 244.461,76.819 245.333,76.012 C246.191,75.219 247.632,75.224 248.406,76.065 C249.051,76.765 249.303,78.153 248.291,79.087 C247.417,79.894 246.051,79.867 245.228,79.021 ZM136.074,176.969 C136.900,177.839 136.860,179.152 135.982,179.960 C135.101,180.769 133.762,180.729 132.938,179.867 C132.110,179.002 132.152,177.690 133.034,176.875 C133.915,176.061 135.250,176.102 136.074,176.969 ZM148.255,166.064 C147.458,165.207 147.531,163.852 148.416,163.061 C149.307,162.264 150.663,162.322 151.466,163.192 C152.267,164.060 152.198,165.397 151.311,166.192 C150.428,166.983 149.055,166.926 148.255,166.064 ZM167.460,148.705 C166.695,147.807 166.818,146.475 167.736,145.710 C168.649,144.949 170.020,145.059 170.781,145.954 C171.545,146.852 171.423,148.185 170.507,148.950 C169.601,149.708 168.220,149.597 167.460,148.705 ZM186.104,132.130 C186.887,133.012 186.794,134.349 185.895,135.127 C184.993,135.909 183.657,135.824 182.858,134.934 C182.061,134.046 182.149,132.735 183.058,131.947 C183.960,131.166 185.320,131.248 186.104,132.130 ZM214.625,103.593 C215.498,102.786 216.873,102.820 217.687,103.667 C218.492,104.506 218.440,105.880 217.571,106.678 C216.695,107.482 215.322,107.447 214.511,106.600 C213.701,105.754 213.752,104.400 214.625,103.593 ZM198.246,121.208 C197.434,120.363 197.486,119.008 198.360,118.203 C199.243,117.390 200.589,117.429 201.408,118.291 C202.229,119.156 202.183,120.480 201.304,121.288 C200.430,122.093 199.061,122.057 198.246,121.208 ZM104.371,208.353 C103.504,209.162 102.130,209.137 101.308,208.296 C100.491,207.461 100.534,206.100 101.403,205.289 C102.277,204.471 103.631,204.499 104.454,205.351 C105.276,206.200 105.239,207.543 104.371,208.353 ZM120.751,190.757 C121.550,191.609 121.487,192.971 120.612,193.765 C119.729,194.566 118.368,194.517 117.559,193.657 C116.750,192.797 116.811,191.458 117.694,190.655 C118.570,189.859 119.952,189.904 120.751,190.757 ZM231.173,63.884 C230.393,63.008 230.485,61.646 231.378,60.873 C232.258,60.110 233.708,60.184 234.456,61.030 C235.216,61.887 235.114,63.287 234.236,64.054 C233.347,64.830 231.945,64.752 231.173,63.884 ZM203.721,88.625 C204.504,89.492 204.417,90.859 203.528,91.636 C202.639,92.413 201.248,92.340 200.468,91.474 C199.686,90.606 199.772,89.242 200.658,88.464 C201.542,87.688 202.940,87.761 203.721,88.625 ZM184.367,103.097 C185.247,102.302 186.610,102.359 187.419,103.223 C188.229,104.089 188.170,105.425 187.286,106.223 C186.408,107.017 185.022,106.964 184.226,106.107 C183.428,105.248 183.491,103.887 184.367,103.097 ZM172.061,117.003 C172.869,117.854 172.815,119.210 171.940,120.008 C171.058,120.812 169.708,120.761 168.894,119.893 C168.078,119.024 168.127,117.694 169.004,116.895 C169.874,116.102 171.251,116.151 172.061,117.003 ZM87.248,193.151 C86.471,192.272 86.564,190.912 87.454,190.141 C88.346,189.368 89.720,189.451 90.507,190.326 C91.295,191.204 91.206,192.548 90.308,193.327 C89.417,194.099 88.016,194.019 87.248,193.151 ZM103.573,178.592 C102.758,177.745 102.799,176.387 103.663,175.583 C104.528,174.779 105.909,174.810 106.728,175.652 C107.539,176.485 107.495,177.859 106.632,178.665 C105.767,179.473 104.390,179.440 103.573,178.592 ZM118.930,164.779 C118.112,163.913 118.156,162.584 119.030,161.781 C119.903,160.979 121.254,161.027 122.074,161.890 C122.899,162.760 122.856,164.077 121.977,164.884 C121.097,165.691 119.748,165.644 118.930,164.779 ZM137.308,151.113 C136.427,151.900 135.040,151.838 134.248,150.976 C133.456,150.112 133.528,148.754 134.409,147.968 C135.293,147.178 136.663,147.242 137.464,148.110 C138.266,148.978 138.197,150.318 137.308,151.113 ZM156.698,130.781 C157.511,131.629 157.464,132.986 156.594,133.791 C155.722,134.597 154.348,134.559 153.534,133.707 C152.723,132.858 152.769,131.499 153.638,130.697 C154.507,129.894 155.884,129.933 156.698,130.781 ZM217.213,48.845 C216.422,48.014 216.470,46.589 217.315,45.813 C218.135,45.058 219.644,45.103 220.415,45.905 C221.196,46.716 221.133,48.155 220.283,48.939 C219.420,49.735 218.019,49.692 217.213,48.845 ZM43.918,176.773 C43.113,175.891 43.190,174.585 44.093,173.788 C45.002,172.986 46.305,173.059 47.123,173.959 C47.939,174.856 47.866,176.135 46.952,176.939 C46.047,177.734 44.730,177.662 43.918,176.773 ZM62.362,163.096 C61.489,163.913 60.134,163.892 59.305,163.050 C58.483,162.217 58.524,160.858 59.394,160.046 C60.272,159.227 61.619,159.250 62.444,160.099 C63.268,160.948 63.232,162.283 62.362,163.096 ZM78.730,145.494 C79.540,146.336 79.488,147.694 78.615,148.498 C77.730,149.312 76.387,149.279 75.565,148.423 C74.749,147.572 74.797,146.232 75.674,145.423 C76.551,144.613 77.914,144.645 78.730,145.494 ZM90.898,134.586 C90.090,133.702 90.162,132.398 91.064,131.599 C91.964,130.801 93.288,130.869 94.099,131.756 C94.909,132.641 94.837,133.939 93.935,134.739 C93.038,135.535 91.705,135.468 90.898,134.586 ZM106.280,120.849 C105.461,120.007 105.505,118.656 106.377,117.846 C107.255,117.030 108.602,117.059 109.427,117.911 C110.252,118.765 110.211,120.094 109.333,120.907 C108.453,121.724 107.105,121.699 106.280,120.849 ZM125.490,103.501 C124.701,102.628 124.788,101.292 125.686,100.503 C126.581,99.717 127.949,99.788 128.735,100.661 C129.527,101.542 129.440,102.866 128.539,103.658 C127.640,104.447 126.282,104.377 125.490,103.501 ZM175.684,58.424 C176.489,59.267 176.429,60.631 175.553,61.430 C174.670,62.235 173.304,62.198 172.498,61.347 C171.690,60.494 171.748,59.148 172.626,58.343 C173.507,57.536 174.872,57.573 175.684,58.424 ZM156.149,75.857 C155.390,74.939 155.525,73.637 156.458,72.869 C157.376,72.112 158.724,72.234 159.491,73.144 C160.257,74.052 160.125,75.352 159.190,76.126 C158.277,76.881 156.894,76.759 156.149,75.857 ZM140.826,89.658 C140.045,88.762 140.157,87.456 141.081,86.678 C141.993,85.909 143.355,86.014 144.121,86.911 C144.892,87.815 144.776,89.122 143.855,89.898 C142.939,90.671 141.617,90.566 140.826,89.658 ZM187.893,47.552 C187.052,46.675 187.082,45.387 187.963,44.567 C188.854,43.738 190.163,43.770 190.996,44.641 C191.840,45.523 191.809,46.800 190.925,47.623 C190.035,48.452 188.729,48.422 187.893,47.552 ZM203.224,33.776 C202.406,32.936 202.455,31.581 203.324,30.770 C204.304,29.855 205.617,30.084 206.395,30.816 C207.214,31.587 207.133,33.039 206.281,33.830 C205.403,34.646 204.047,34.622 203.224,33.776 ZM173.832,32.406 C173.039,31.524 173.118,30.174 174.008,29.410 C174.903,28.640 176.250,28.734 177.052,29.622 C177.849,30.503 177.768,31.841 176.872,32.613 C175.969,33.390 174.635,33.299 173.832,32.406 ZM189.187,18.656 C188.408,17.804 188.481,16.398 189.345,15.634 C190.198,14.879 191.678,14.942 192.435,15.766 C193.203,16.600 193.118,18.023 192.253,18.796 C191.377,19.580 189.973,19.516 189.187,18.656 ZM158.480,46.247 C157.697,45.400 157.765,43.998 158.626,43.225 C159.486,42.454 160.915,42.517 161.700,43.363 C162.493,44.217 162.422,45.596 161.545,46.378 C160.665,47.163 159.272,47.103 158.480,46.247 ZM142.218,60.858 C141.430,60.005 141.494,58.613 142.357,57.838 C143.229,57.054 144.615,57.119 145.417,57.981 C146.222,58.846 146.161,60.193 145.281,60.986 C144.407,61.773 143.010,61.714 142.218,60.858 ZM114.691,85.535 C115.503,86.376 115.459,87.743 114.594,88.547 C113.732,89.350 112.344,89.312 111.530,88.464 C110.725,87.624 110.767,86.237 111.621,85.444 C112.470,84.654 113.883,84.696 114.691,85.535 ZM95.444,102.848 C96.251,103.706 96.197,105.061 95.323,105.858 C94.455,106.649 93.058,106.598 92.258,105.747 C91.467,104.904 91.522,103.507 92.378,102.727 C93.240,101.941 94.643,101.997 95.444,102.848 ZM175.190,3.576 C174.523,2.827 174.297,1.475 175.403,0.608 C176.309,-0.198 177.711,-0.183 178.438,0.701 C179.181,1.604 179.157,2.920 178.245,3.719 C177.353,4.499 175.970,4.450 175.190,3.576 ZM131.407,42.890 C132.221,43.753 132.171,45.081 131.295,45.885 C130.424,46.684 129.040,46.655 128.241,45.799 C127.469,44.972 127.404,43.597 128.392,42.831 C129.327,41.980 130.572,42.005 131.407,42.890 ZM62.897,104.424 C62.077,103.528 62.163,102.307 63.105,101.471 C64.043,100.637 65.280,100.693 66.107,101.606 C66.907,102.489 66.831,103.801 65.934,104.590 C65.042,105.376 63.701,105.302 62.897,104.424 ZM47.550,118.251 C46.888,117.552 46.633,116.146 47.726,115.284 C48.654,114.322 50.029,114.602 50.749,115.360 C51.552,116.203 51.476,117.573 50.602,118.361 C49.720,119.158 48.360,119.105 47.550,118.251 ZM113.064,56.598 C113.990,55.650 115.355,55.927 116.080,56.704 C116.878,57.562 116.795,58.917 115.912,59.701 C115.022,60.492 113.680,60.427 112.874,59.553 C112.044,58.655 112.123,57.439 113.064,56.598 ZM97.533,73.387 C96.809,72.635 96.652,71.219 97.678,70.418 C98.601,69.576 99.876,69.596 100.700,70.465 C101.508,71.316 101.457,72.666 100.587,73.466 C99.715,74.269 98.350,74.234 97.533,73.387 ZM159.831,17.326 C159.006,16.408 159.101,15.228 160.069,14.380 C161.013,13.553 162.234,13.624 163.065,14.555 C163.860,15.446 163.771,16.748 162.860,17.533 C161.956,18.312 160.638,18.222 159.831,17.326 ZM144.467,31.153 C143.665,30.269 143.762,29.013 144.698,28.185 C145.595,27.273 146.951,27.488 147.719,28.311 C148.518,29.167 148.411,30.532 147.521,31.311 C146.633,32.089 145.252,32.018 144.467,31.153 ZM19.138,143.817 C19.937,144.710 19.852,146.011 18.943,146.796 C18.039,147.576 16.714,147.491 15.910,146.603 C15.091,145.697 15.185,144.494 16.141,143.653 C17.089,142.819 18.306,142.885 19.138,143.817 ZM31.447,129.905 C32.380,129.056 33.632,129.079 34.465,129.962 C35.275,130.819 35.223,132.159 34.349,132.960 C33.478,133.759 32.082,133.738 31.295,132.874 C30.462,131.957 30.508,130.632 31.447,129.905 ZM81.485,87.809 C82.258,88.701 82.178,90.023 81.282,90.806 C80.392,91.582 79.016,91.505 78.231,90.637 C77.618,89.959 77.322,88.564 78.468,87.672 C79.446,86.678 80.887,87.118 81.485,87.809 Z" />
</svg>