<svg xmlns="http://www.w3.org/2000/svg" xmlns:xlink="http://www.w3.org/1999/xlink" width="255px" height="255px">
    <path fill-rule="evenodd" opacity="0.502" fill="rgb(255, 255, 255)" d="M120.327,1.326 C120.699,1.867 120.633,2.714 120.177,3.246 C119.711,3.789 118.876,3.970 118.225,3.669 C117.533,3.349 117.164,2.612 117.305,1.833 C117.335,1.665 117.367,1.496 117.398,1.328 C117.569,1.139 117.740,0.949 117.911,0.760 C118.051,0.714 118.192,0.670 118.331,0.622 C119.120,0.354 119.828,0.603 120.327,1.326 ZM157.279,58.217 C156.668,58.899 155.630,58.960 154.955,58.353 C154.278,57.744 154.224,56.705 154.835,56.025 C155.441,55.351 156.499,55.288 157.167,55.886 C157.835,56.483 157.886,57.539 157.279,58.217 ZM145.541,47.573 C144.956,48.251 143.887,48.322 143.204,47.728 C142.520,47.134 142.446,46.078 143.041,45.395 C143.631,44.717 144.700,44.642 145.379,45.230 C146.051,45.811 146.126,46.894 145.541,47.573 ZM133.057,36.307 C132.455,36.985 131.405,37.049 130.725,36.447 C130.049,35.850 129.982,34.784 130.578,34.109 C131.165,33.445 132.257,33.379 132.922,33.969 C133.592,34.563 133.654,35.634 133.057,36.307 ZM121.242,25.693 C120.615,26.365 119.579,26.401 118.917,25.773 C118.256,25.147 118.230,24.115 118.858,23.445 C119.479,22.781 120.534,22.744 121.189,23.362 C121.847,23.983 121.871,25.019 121.242,25.693 ZM109.489,15.070 C108.991,15.598 108.184,15.731 107.527,15.393 C106.842,15.041 106.502,14.294 106.683,13.532 C106.723,13.363 106.775,13.196 106.821,13.028 C106.958,12.876 107.095,12.724 107.232,12.573 C107.394,12.509 107.555,12.441 107.720,12.383 C108.428,12.136 109.221,12.378 109.621,12.959 C110.077,13.621 110.022,14.505 109.489,15.070 ZM193.147,90.637 C193.761,89.968 194.816,89.915 195.479,90.522 C196.134,91.121 196.179,92.203 195.578,92.863 C194.969,93.529 193.907,93.576 193.242,92.965 C192.572,92.351 192.529,91.311 193.147,90.637 ZM98.893,26.792 C98.422,27.332 97.570,27.508 96.936,27.195 C96.232,26.847 95.880,26.128 96.034,25.348 C96.067,25.178 96.106,25.010 96.142,24.840 C96.313,24.651 96.484,24.462 96.655,24.273 C96.820,24.224 96.984,24.176 97.149,24.128 C97.909,23.906 98.666,24.197 99.067,24.863 C99.420,25.449 99.346,26.270 98.893,26.792 ZM210.307,148.922 C209.690,149.612 208.666,149.678 207.985,149.071 C207.303,148.464 207.250,147.434 207.864,146.747 C208.475,146.064 209.526,145.993 210.197,146.588 C210.865,147.180 210.915,148.242 210.307,148.922 ZM99.980,49.212 C99.358,49.894 98.328,49.946 97.655,49.330 C96.984,48.717 96.943,47.681 97.561,47.002 C98.173,46.331 99.241,46.273 99.898,46.875 C100.558,47.479 100.595,48.538 99.980,49.212 ZM88.191,38.627 C87.664,39.164 86.804,39.274 86.153,38.890 C85.529,38.521 85.223,37.766 85.410,37.045 C85.454,36.875 85.513,36.708 85.565,36.540 C85.702,36.388 85.839,36.237 85.976,36.086 C86.163,36.019 86.348,35.945 86.539,35.889 C87.256,35.680 88.017,35.970 88.392,36.587 C88.800,37.260 88.718,38.089 88.191,38.627 ZM121.799,68.892 C122.411,68.236 123.503,68.193 124.147,68.799 C124.793,69.407 124.829,70.508 124.224,71.152 C123.607,71.809 122.539,71.845 121.881,71.230 C121.218,70.612 121.181,69.554 121.799,68.892 ZM109.295,57.652 C109.879,56.984 110.975,56.912 111.644,57.496 C112.313,58.079 112.377,59.166 111.782,59.840 C111.181,60.522 110.130,60.590 109.448,59.991 C108.770,59.395 108.700,58.331 109.295,57.652 ZM133.573,79.546 C134.185,78.880 135.261,78.828 135.911,79.433 C136.569,80.044 136.602,81.101 135.985,81.772 C135.364,82.447 134.324,82.494 133.656,81.877 C132.990,81.261 132.952,80.219 133.573,79.546 ZM196.099,136.067 C196.703,135.416 197.807,135.372 198.451,135.972 C199.097,136.574 199.137,137.683 198.536,138.326 C197.920,138.986 196.852,139.023 196.191,138.408 C195.529,137.793 195.487,136.725 196.099,136.067 ZM183.603,124.830 C184.188,124.161 185.280,124.087 185.951,124.672 C186.621,125.256 186.684,126.335 186.087,127.013 C185.484,127.699 184.441,127.768 183.756,127.167 C183.078,126.573 183.009,125.510 183.603,124.830 ZM174.313,116.384 C173.710,117.059 172.652,117.120 171.978,116.519 C171.299,115.914 171.243,114.872 171.853,114.190 C172.459,113.513 173.522,113.443 174.191,114.038 C174.849,114.623 174.906,115.719 174.313,116.384 ZM145.455,92.542 C144.778,91.945 144.709,90.883 145.304,90.205 C145.891,89.536 146.982,89.463 147.652,90.048 C148.319,90.629 148.383,91.720 147.790,92.392 C147.191,93.073 146.134,93.140 145.455,92.542 ZM162.523,105.772 C161.907,106.432 160.844,106.471 160.183,105.856 C159.520,105.240 159.481,104.176 160.096,103.516 C160.705,102.862 161.803,102.818 162.446,103.421 C163.095,104.031 163.131,105.118 162.523,105.772 ZM77.583,50.363 C77.093,50.895 76.265,51.042 75.626,50.710 C74.925,50.346 74.589,49.630 74.760,48.858 C74.798,48.689 74.844,48.522 74.886,48.353 C75.023,48.202 75.160,48.051 75.296,47.899 C75.459,47.831 75.618,47.755 75.783,47.695 C76.512,47.430 77.319,47.687 77.736,48.314 C78.153,48.939 78.087,49.815 77.583,50.363 ZM86.914,58.779 C87.532,58.097 88.555,58.041 89.236,58.653 C89.921,59.267 89.969,60.281 89.348,60.973 C88.727,61.664 87.713,61.721 87.028,61.102 C86.347,60.488 86.297,59.462 86.914,58.779 ZM197.235,158.504 C197.857,157.820 198.876,157.767 199.554,158.383 C200.235,159.001 200.279,160.015 199.656,160.703 C199.034,161.391 198.017,161.444 197.336,160.825 C196.655,160.206 196.611,159.191 197.235,158.504 ZM66.981,62.089 C66.533,62.613 65.741,62.803 65.097,62.543 C64.429,62.274 63.999,61.551 64.084,60.823 C64.109,60.602 64.165,60.385 64.206,60.166 C64.377,59.977 64.549,59.788 64.720,59.599 C64.908,59.538 65.095,59.469 65.286,59.418 C65.999,59.224 66.744,59.526 67.137,60.161 C67.498,60.743 67.432,61.563 66.981,62.089 ZM178.389,184.229 C177.775,184.918 176.747,184.985 176.066,184.381 C175.385,183.778 175.331,182.741 175.943,182.057 C176.555,181.372 177.599,181.301 178.273,181.898 C178.945,182.493 178.997,183.546 178.389,184.229 ZM104.083,117.059 C103.471,117.745 102.437,117.810 101.757,117.204 C101.080,116.599 101.024,115.556 101.633,114.875 C102.237,114.199 103.300,114.132 103.968,114.726 C104.636,115.319 104.689,116.381 104.083,117.059 ZM68.090,84.488 C67.482,85.186 66.459,85.266 65.769,84.669 C65.083,84.076 65.012,83.028 65.612,82.343 C66.215,81.653 67.254,81.570 67.942,82.157 C68.622,82.738 68.690,83.798 68.090,84.488 ZM56.284,73.923 C55.762,74.470 54.921,74.586 54.251,74.203 C53.616,73.841 53.306,73.101 53.486,72.371 C53.528,72.201 53.581,72.034 53.630,71.866 C53.766,71.715 53.904,71.563 54.040,71.411 C54.228,71.342 54.412,71.262 54.602,71.204 C55.319,70.985 56.087,71.267 56.465,71.879 C56.877,72.547 56.804,73.379 56.284,73.923 ZM77.375,92.960 C77.961,92.292 79.051,92.220 79.722,92.807 C80.392,93.394 80.458,94.473 79.863,95.148 C79.263,95.830 78.211,95.898 77.529,95.300 C76.852,94.707 76.781,93.638 77.375,92.960 ZM89.884,104.196 C90.499,103.541 91.582,103.503 92.229,104.114 C92.876,104.726 92.910,105.819 92.301,106.465 C91.681,107.121 90.612,107.154 89.957,106.536 C89.296,105.914 89.263,104.855 89.884,104.196 ZM115.831,127.744 C115.207,128.404 114.148,128.434 113.492,127.812 C112.835,127.189 112.805,126.119 113.424,125.469 C114.042,124.822 115.136,124.789 115.773,125.398 C116.423,126.020 116.450,127.091 115.831,127.744 ZM130.602,141.081 C129.987,141.743 128.921,141.780 128.261,141.163 C127.599,140.545 127.562,139.480 128.178,138.823 C128.792,138.167 129.878,138.126 130.525,138.733 C131.175,139.344 131.211,140.426 130.602,141.081 ZM139.953,149.478 C140.567,148.810 141.633,148.761 142.289,149.369 C142.939,149.973 142.979,151.059 142.373,151.714 C141.759,152.378 140.696,152.421 140.036,151.809 C139.369,151.190 139.332,150.151 139.953,149.478 ZM151.820,162.462 C151.149,161.857 151.093,160.792 151.698,160.122 C152.294,159.461 153.385,159.402 154.044,159.996 C154.711,160.597 154.761,161.663 154.154,162.336 C153.543,163.015 152.497,163.071 151.820,162.462 ZM166.624,173.626 C166.019,174.288 164.943,174.334 164.280,173.726 C163.615,173.115 163.565,172.047 164.171,171.384 C164.770,170.729 165.866,170.678 166.519,171.275 C167.174,171.873 167.223,172.971 166.624,173.626 ZM45.635,85.702 C45.151,86.198 44.331,86.342 43.729,86.036 C43.021,85.675 42.676,84.963 42.836,84.186 C42.870,84.016 42.912,83.848 42.950,83.679 C43.121,83.489 43.293,83.300 43.464,83.111 C43.628,83.065 43.793,83.019 43.957,82.972 C44.718,82.757 45.481,83.055 45.871,83.718 C46.236,84.340 46.135,85.188 45.635,85.702 ZM82.801,140.602 C82.185,141.288 81.156,141.349 80.477,140.740 C79.799,140.134 79.745,139.094 80.355,138.412 C80.961,137.734 82.016,137.669 82.688,138.269 C83.360,138.869 83.412,139.922 82.801,140.602 ZM56.239,118.828 C55.565,118.225 55.504,117.162 56.104,116.489 C56.698,115.823 57.782,115.763 58.449,116.359 C59.119,116.958 59.175,118.027 58.572,118.700 C57.966,119.376 56.916,119.434 56.239,118.828 ZM71.051,129.969 C70.458,130.641 69.386,130.703 68.713,130.105 C68.034,129.502 67.969,128.451 68.570,127.771 C69.167,127.096 70.233,127.030 70.910,127.625 C71.578,128.212 71.644,129.299 71.051,129.969 ZM46.774,108.066 C46.149,108.745 45.118,108.791 44.450,108.172 C43.781,107.552 43.745,106.523 44.366,105.844 C44.982,105.172 46.038,105.123 46.698,105.736 C47.363,106.353 47.398,107.390 46.774,108.066 ZM35.073,97.383 C34.608,97.940 33.801,98.122 33.124,97.824 C32.484,97.542 32.085,96.855 32.160,96.148 C32.184,95.928 32.233,95.711 32.271,95.492 C32.442,95.303 32.613,95.113 32.784,94.924 C32.973,94.860 33.159,94.787 33.350,94.732 C34.043,94.535 34.765,94.801 35.161,95.391 C35.579,96.015 35.543,96.821 35.073,97.383 ZM24.379,109.215 C23.886,109.745 23.068,109.885 22.421,109.550 C21.723,109.188 21.389,108.468 21.564,107.696 C21.602,107.527 21.650,107.359 21.694,107.192 C21.831,107.040 21.968,106.888 22.105,106.737 C22.267,106.671 22.427,106.598 22.592,106.540 C23.326,106.278 24.133,106.540 24.539,107.168 C24.955,107.811 24.888,108.668 24.379,109.215 ZM33.707,117.635 C34.320,116.949 35.347,116.884 36.031,117.488 C36.714,118.090 36.770,119.120 36.157,119.810 C35.544,120.502 34.524,120.566 33.838,119.958 C33.155,119.352 33.097,118.317 33.707,117.635 ZM144.030,217.357 C144.647,216.672 145.675,216.611 146.352,217.221 C147.031,217.832 147.080,218.855 146.464,219.543 C145.848,220.229 144.823,220.289 144.143,219.679 C143.463,219.067 143.413,218.042 144.030,217.357 ZM13.778,120.941 C13.310,121.483 12.468,121.660 11.824,121.352 C11.126,121.019 10.765,120.290 10.913,119.511 C10.945,119.342 10.981,119.173 11.015,119.004 C11.186,118.815 11.357,118.626 11.528,118.436 C11.693,118.386 11.857,118.335 12.021,118.286 C12.777,118.062 13.534,118.350 13.942,119.014 C14.300,119.596 14.230,120.418 13.778,120.941 ZM89.420,210.201 C89.067,210.879 88.333,211.208 87.556,211.042 C87.339,210.996 87.117,210.967 86.898,210.930 C86.784,210.827 86.671,210.724 86.557,210.622 C86.505,210.408 86.464,210.191 86.399,209.981 C86.168,209.229 86.432,208.457 87.069,208.043 C87.661,207.660 88.526,207.720 89.059,208.183 C89.615,208.665 89.769,209.530 89.420,210.201 ZM26.909,153.638 C26.584,154.312 25.831,154.665 25.057,154.516 C24.843,154.475 24.624,154.462 24.407,154.437 C24.294,154.334 24.180,154.232 24.067,154.129 C24.003,153.914 23.946,153.696 23.875,153.483 C23.619,152.722 23.861,151.968 24.503,151.541 C25.142,151.115 26.003,151.171 26.549,151.672 C27.066,152.148 27.221,152.993 26.909,153.638 ZM15.152,142.956 C14.796,143.685 14.052,144.039 13.250,143.868 C13.032,143.821 12.811,143.792 12.591,143.755 C12.478,143.652 12.364,143.550 12.250,143.446 C12.198,143.233 12.157,143.015 12.092,142.806 C11.861,142.052 12.123,141.281 12.760,140.866 C13.372,140.468 14.285,140.554 14.806,141.059 C15.298,141.535 15.447,142.353 15.152,142.956 ZM3.303,132.486 C2.972,133.050 2.266,133.366 1.592,133.246 C1.318,133.196 1.047,133.131 0.775,133.072 C0.699,133.004 0.623,132.936 0.548,132.867 C0.303,132.156 0.076,131.445 0.438,130.704 C0.575,130.552 0.712,130.401 0.849,130.250 C1.037,130.181 1.222,130.103 1.414,130.046 C2.042,129.856 2.763,130.068 3.150,130.548 C3.598,131.104 3.660,131.879 3.303,132.486 ZM37.013,162.777 C37.637,162.389 38.468,162.454 39.004,162.933 C39.557,163.428 39.697,164.278 39.337,164.962 C38.996,165.610 38.274,165.940 37.531,165.786 C37.284,165.736 37.038,165.684 36.792,165.633 C36.716,165.565 36.640,165.496 36.565,165.428 C36.486,165.188 36.406,164.948 36.328,164.708 C36.087,163.957 36.363,163.180 37.013,162.777 ZM48.766,173.429 C49.362,173.036 50.207,173.089 50.752,173.554 C51.305,174.026 51.474,174.928 51.130,175.570 C50.765,176.251 50.037,176.580 49.265,176.420 C49.049,176.375 48.827,176.350 48.608,176.315 C48.495,176.212 48.381,176.110 48.267,176.007 C48.213,175.793 48.168,175.576 48.102,175.365 C47.866,174.615 48.124,173.853 48.766,173.429 ZM60.499,184.092 C61.132,183.668 61.1000,183.722 62.549,184.219 C63.079,184.699 63.231,185.513 62.914,186.178 C62.585,186.866 61.856,187.215 61.072,187.069 C60.859,187.030 60.641,187.021 60.425,186.998 C60.311,186.895 60.197,186.792 60.084,186.689 C60.018,186.474 59.959,186.257 59.887,186.043 C59.629,185.280 59.867,184.516 60.499,184.092 ZM75.323,197.399 C75.952,197.013 76.781,197.083 77.311,197.564 C77.841,198.045 77.992,198.866 77.672,199.529 C77.341,200.215 76.596,200.570 75.821,200.408 C75.574,200.357 75.328,200.301 75.082,200.248 C75.006,200.179 74.930,200.111 74.854,200.042 C74.778,199.802 74.700,199.563 74.625,199.322 C74.387,198.566 74.665,197.802 75.323,197.399 ZM98.809,218.715 C99.440,218.292 100.311,218.349 100.856,218.849 C101.380,219.330 101.532,220.161 101.214,220.810 C100.882,221.489 100.139,221.839 99.365,221.691 C99.151,221.650 98.931,221.638 98.714,221.613 C98.601,221.510 98.487,221.407 98.374,221.304 C98.310,221.089 98.252,220.872 98.181,220.659 C97.927,219.896 98.168,219.145 98.809,218.715 ZM111.251,229.989 C111.883,229.566 112.759,229.617 113.311,230.109 C113.868,230.606 114.005,231.442 113.643,232.136 C113.303,232.787 112.583,233.116 111.838,232.962 C111.592,232.911 111.345,232.860 111.099,232.808 C111.023,232.740 110.947,232.671 110.871,232.603 C110.793,232.363 110.713,232.124 110.635,231.884 C110.404,231.163 110.656,230.387 111.251,229.989 ZM123.071,240.601 C123.649,240.210 124.516,240.265 125.058,240.729 C125.589,241.183 125.774,242.050 125.473,242.678 C125.126,243.403 124.377,243.762 123.572,243.596 C123.355,243.551 123.134,243.525 122.915,243.491 C122.801,243.388 122.688,243.285 122.574,243.182 C122.520,242.968 122.474,242.751 122.408,242.540 C122.171,241.785 122.423,241.041 123.071,240.601 ZM134.876,251.228 C135.534,250.831 136.403,250.926 136.915,251.452 C137.466,252.018 137.566,252.989 137.076,253.629 C136.658,254.175 136.064,254.360 135.379,254.243 C135.165,254.206 134.947,254.196 134.731,254.173 C134.618,254.070 134.504,253.967 134.391,253.865 C134.325,253.649 134.266,253.431 134.193,253.218 C133.927,252.433 134.199,251.636 134.876,251.228 ZM145.152,239.740 C145.764,239.073 146.808,239.036 147.484,239.658 C148.149,240.268 148.232,241.379 147.613,241.994 C146.990,242.613 145.970,242.725 145.269,242.074 C144.599,241.451 144.541,240.406 145.152,239.740 ZM99.839,198.766 C99.239,199.445 98.195,199.505 97.514,198.899 C96.823,198.286 96.760,197.271 97.368,196.583 C97.980,195.891 98.993,195.830 99.684,196.444 C100.375,197.057 100.443,198.082 99.839,198.766 ZM23.083,129.385 C23.705,128.705 24.715,128.663 25.399,129.289 C26.089,129.919 26.131,130.913 25.498,131.602 C24.868,132.288 23.868,132.332 23.183,131.703 C22.503,131.079 22.459,130.068 23.083,129.385 ZM49.637,151.201 C50.312,151.819 50.365,152.866 49.754,153.529 C49.142,154.193 48.095,154.232 47.421,153.615 C46.745,152.996 46.695,151.959 47.310,151.288 C47.926,150.616 48.955,150.578 49.637,151.201 ZM34.819,140.031 C35.416,139.355 36.463,139.301 37.149,139.911 C37.838,140.525 37.904,141.550 37.298,142.232 C36.695,142.911 35.656,142.969 34.973,142.361 C34.291,141.755 34.222,140.709 34.819,140.031 ZM59.064,161.963 C59.673,161.268 60.683,161.204 61.379,161.816 C62.077,162.429 62.144,163.435 61.533,164.128 C60.920,164.822 59.908,164.888 59.218,164.280 C58.527,163.671 58.459,162.652 59.064,161.963 ZM70.975,174.908 C70.292,174.295 70.229,173.257 70.833,172.580 C71.434,171.906 72.479,171.856 73.161,172.467 C73.849,173.084 73.910,174.110 73.300,174.790 C72.691,175.469 71.658,175.521 70.975,174.908 ZM88.080,188.117 C87.482,188.803 86.444,188.871 85.754,188.269 C85.061,187.664 84.983,186.633 85.579,185.944 C86.171,185.259 87.214,185.192 87.903,185.794 C88.598,186.402 88.676,187.432 88.080,188.117 ZM109.118,207.222 C109.710,206.536 110.752,206.471 111.443,207.076 C112.141,207.686 112.215,208.704 111.612,209.394 C111.008,210.085 109.983,210.154 109.292,209.548 C108.600,208.942 108.523,207.911 109.118,207.222 ZM133.427,229.086 C134.066,228.413 135.061,228.395 135.742,229.043 C136.413,229.682 136.430,230.675 135.783,231.357 C135.147,232.027 134.143,232.046 133.468,231.402 C132.799,230.765 132.782,229.767 133.427,229.086 ZM121.643,218.428 C122.274,217.778 123.308,217.767 123.975,218.404 C124.635,219.035 124.661,220.097 124.033,220.736 C123.396,221.384 122.358,221.396 121.697,220.761 C121.042,220.135 121.018,219.072 121.643,218.428 ZM155.804,227.958 C156.422,227.305 157.494,227.271 158.148,227.884 C158.794,228.491 158.843,229.611 158.249,230.239 C157.645,230.879 156.548,230.907 155.894,230.299 C155.232,229.684 155.191,228.609 155.804,227.958 ZM134.719,208.918 C134.125,209.588 133.054,209.644 132.380,209.041 C131.703,208.436 131.640,207.377 132.239,206.705 C132.835,206.039 133.908,205.980 134.579,206.577 C135.249,207.173 135.313,208.248 134.719,208.918 ZM122.226,197.654 C121.611,198.326 120.567,198.371 119.895,197.755 C119.228,197.144 119.179,196.077 119.788,195.418 C120.398,194.758 121.467,194.714 122.128,195.321 C122.796,195.935 122.840,196.983 122.226,197.654 ZM83.927,163.035 C83.312,163.704 82.264,163.746 81.593,163.129 C80.928,162.516 80.881,161.450 81.491,160.792 C82.104,160.132 83.169,160.090 83.831,160.700 C84.497,161.313 84.541,162.368 83.927,163.035 ZM69.740,150.154 C70.361,149.489 71.410,149.451 72.070,150.068 C72.733,150.689 72.764,151.721 72.139,152.395 C71.517,153.067 70.479,153.105 69.814,152.481 C69.147,151.854 69.114,150.823 69.740,150.154 ZM98.681,176.390 C98.065,177.051 97.007,177.085 96.344,176.465 C95.681,175.843 95.643,174.785 96.261,174.128 C96.879,173.470 97.942,173.435 98.600,174.051 C99.258,174.668 99.295,175.732 98.681,176.390 ZM110.480,186.993 C109.885,187.672 108.830,187.737 108.149,187.137 C107.464,186.533 107.402,185.498 108.009,184.813 C108.616,184.129 109.652,184.060 110.334,184.660 C111.007,185.251 111.074,186.317 110.480,186.993 ZM45.610,130.599 C44.933,130.002 44.864,128.936 45.460,128.263 C46.052,127.595 47.128,127.532 47.799,128.127 C48.475,128.726 48.539,129.784 47.941,130.459 C47.338,131.141 46.296,131.203 45.610,130.599 ZM60.401,141.751 C59.799,142.417 58.732,142.465 58.063,141.857 C57.391,141.246 57.337,140.192 57.946,139.523 C58.553,138.856 59.614,138.805 60.282,139.411 C60.948,140.014 61.002,141.086 60.401,141.751 ZM154.685,205.572 C155.306,204.897 156.353,204.848 157.014,205.463 C157.678,206.082 157.710,207.117 157.086,207.794 C156.461,208.472 155.433,208.518 154.762,207.897 C154.092,207.276 154.058,206.254 154.685,205.572 ZM166.404,216.234 C166.981,215.564 168.075,215.489 168.748,216.073 C169.406,216.644 169.490,217.770 168.924,218.429 C168.361,219.085 167.242,219.153 166.572,218.572 C165.888,217.980 165.812,216.920 166.404,216.234 ZM121.122,175.222 C120.526,175.901 119.467,175.971 118.789,175.375 C118.104,174.772 118.039,173.733 118.643,173.049 C119.248,172.362 120.291,172.288 120.975,172.882 C121.648,173.468 121.715,174.543 121.122,175.222 ZM92.134,149.020 C92.742,148.364 93.829,148.323 94.479,148.931 C95.136,149.547 95.173,150.615 94.560,151.274 C93.941,151.938 92.887,151.977 92.224,151.360 C91.562,150.744 91.521,149.681 92.134,149.020 ZM106.904,162.355 C107.522,161.702 108.605,161.670 109.249,162.284 C109.901,162.906 109.930,163.979 109.313,164.629 C108.691,165.286 107.632,165.316 106.974,164.694 C106.316,164.073 106.284,163.011 106.904,162.355 ZM132.870,185.879 C132.257,186.555 131.214,186.608 130.539,185.998 C129.870,185.392 129.815,184.326 130.419,183.659 C131.019,182.996 132.101,182.942 132.763,183.541 C133.433,184.147 133.481,185.205 132.870,185.879 ZM145.327,197.184 C144.702,197.838 143.640,197.867 142.983,197.248 C142.325,196.628 142.290,195.559 142.907,194.906 C143.518,194.258 144.611,194.224 145.254,194.834 C145.902,195.448 145.936,196.546 145.327,197.184 ZM54.986,94.096 C55.603,93.406 56.615,93.347 57.304,93.961 C57.997,94.580 58.054,95.581 57.434,96.276 C56.809,96.976 55.817,97.034 55.122,96.411 C54.428,95.789 54.370,94.787 54.986,94.096 ZM66.767,104.692 C67.388,104.032 68.432,104.004 69.103,104.628 C69.772,105.251 69.810,106.289 69.188,106.956 C68.566,107.622 67.539,107.652 66.862,107.024 C66.193,106.404 66.151,105.347 66.767,104.692 ZM79.206,116.006 C79.808,115.323 80.847,115.260 81.533,115.865 C82.221,116.473 82.294,117.513 81.697,118.195 C81.104,118.874 80.053,118.935 79.368,118.330 C78.675,117.718 78.603,116.691 79.206,116.006 ZM90.981,126.658 C91.590,125.964 92.608,125.896 93.299,126.502 C93.992,127.110 94.061,128.127 93.454,128.818 C92.842,129.515 91.834,129.583 91.141,128.973 C90.443,128.360 90.373,127.351 90.981,126.658 ZM119.852,150.507 C120.531,151.122 120.586,152.165 119.976,152.835 C119.362,153.511 118.332,153.555 117.648,152.936 C116.964,152.316 116.908,151.284 117.522,150.609 C118.135,149.935 119.172,149.890 119.852,150.507 ZM102.743,137.285 C103.341,136.602 104.384,136.540 105.071,137.145 C105.762,137.753 105.833,138.781 105.231,139.469 C104.628,140.158 103.601,140.221 102.909,139.611 C102.217,139.002 102.143,137.970 102.743,137.285 ZM129.297,161.264 C129.913,160.580 130.934,160.526 131.617,161.142 C132.299,161.756 132.357,162.792 131.748,163.468 C131.137,164.147 130.107,164.198 129.423,163.582 C128.735,162.962 128.680,161.950 129.297,161.264 ZM165.328,193.797 C165.961,193.114 166.961,193.078 167.645,193.713 C168.323,194.342 168.356,195.343 167.721,196.029 C167.089,196.712 166.092,196.748 165.407,196.112 C164.725,195.480 164.691,194.485 165.328,193.797 ZM153.535,183.148 C154.150,182.483 155.194,182.448 155.869,183.067 C156.542,183.685 156.592,184.741 155.979,185.401 C155.363,186.065 154.319,186.100 153.645,185.478 C152.972,184.858 152.923,183.809 153.535,183.148 ZM141.082,171.863 C141.711,171.203 142.742,171.179 143.416,171.809 C144.085,172.436 144.117,173.466 143.487,174.135 C142.858,174.804 141.840,174.830 141.163,174.194 C140.496,173.569 140.459,172.517 141.082,171.863 ZM177.079,204.424 C177.697,203.763 178.746,203.731 179.415,204.353 C180.074,204.966 180.127,206.060 179.529,206.699 C178.926,207.344 177.848,207.370 177.182,206.757 C176.509,206.137 176.463,205.083 177.079,204.424 ZM187.706,192.671 C188.303,192.012 189.402,191.957 190.055,192.551 C190.698,193.138 190.761,194.275 190.185,194.914 C189.602,195.561 188.489,195.608 187.828,195.014 C187.156,194.410 187.100,193.339 187.706,192.671 ZM76.282,70.540 C76.903,69.859 77.922,69.815 78.602,70.438 C79.290,71.068 79.330,72.065 78.696,72.756 C78.068,73.442 77.059,73.487 76.378,72.861 C75.701,72.240 75.659,71.221 76.282,70.540 ZM186.578,170.292 C187.199,169.592 188.198,169.529 188.893,170.144 C189.587,170.758 189.647,171.765 189.030,172.459 C188.410,173.155 187.405,173.220 186.715,172.608 C186.023,171.994 185.963,170.985 186.578,170.292 ZM198.324,180.925 C198.914,180.243 199.970,180.177 200.657,180.780 C201.332,181.372 201.432,182.468 200.839,183.119 C200.345,183.662 199.290,183.957 198.495,183.257 C197.808,182.653 197.730,181.613 198.324,180.925 ZM114.730,105.283 C114.118,105.976 113.101,106.043 112.413,105.436 C111.723,104.827 111.658,103.806 112.264,103.116 C112.873,102.422 113.889,102.356 114.583,102.965 C115.276,103.574 115.341,104.592 114.730,105.283 ZM124.039,113.726 C124.644,113.056 125.696,113.010 126.372,113.624 C127.052,114.242 127.105,115.276 126.491,115.952 C125.879,116.625 124.840,116.673 124.162,116.058 C123.487,115.446 123.431,114.398 124.039,113.726 ZM138.845,127.025 C139.483,126.377 140.521,126.371 141.179,127.011 C141.833,127.648 141.847,128.698 141.211,129.344 C140.572,129.991 139.534,129.998 138.876,129.360 C138.225,128.727 138.210,127.670 138.845,127.025 ZM153.003,139.957 C152.378,140.617 151.338,140.647 150.672,140.022 C150.002,139.395 149.971,138.373 150.601,137.699 C151.229,137.027 152.249,136.995 152.923,137.628 C153.592,138.255 153.628,139.295 153.003,139.957 ZM177.120,159.502 C177.807,160.105 177.880,161.152 177.284,161.834 C176.695,162.509 175.629,162.572 174.950,161.971 C174.265,161.365 174.192,160.318 174.788,159.639 C175.384,158.960 176.433,158.898 177.120,159.502 ZM162.322,148.368 C162.916,147.689 163.967,147.627 164.652,148.231 C165.345,148.841 165.412,149.867 164.805,150.554 C164.197,151.243 163.170,151.307 162.481,150.699 C161.796,150.095 161.725,149.052 162.322,148.368 ZM88.183,83.532 C87.495,82.934 87.415,81.888 88.005,81.201 C88.591,80.517 89.646,80.448 90.336,81.048 C91.031,81.651 91.107,82.682 90.509,83.372 C89.912,84.059 88.872,84.131 88.183,83.532 ZM102.966,94.668 C102.366,95.338 101.309,95.392 100.632,94.786 C99.950,94.175 99.888,93.137 100.494,92.457 C101.100,91.779 102.139,91.724 102.823,92.336 C103.502,92.942 103.567,93.996 102.966,94.668 ZM209.003,169.111 C209.624,168.452 210.682,168.421 211.344,169.042 C211.997,169.653 212.045,170.761 211.446,171.393 C210.839,172.034 209.749,172.061 209.093,171.451 C208.429,170.834 208.388,169.763 209.003,169.111 ZM187.896,150.095 C187.283,150.755 186.220,150.791 185.556,150.174 C184.891,149.556 184.847,148.493 185.459,147.836 C186.073,147.176 187.133,147.140 187.798,147.755 C188.463,148.369 188.508,149.437 187.896,150.095 ZM175.311,136.467 C175.989,137.076 176.044,138.116 175.435,138.795 C174.825,139.476 173.788,139.531 173.107,138.919 C172.430,138.311 172.371,137.253 172.976,136.584 C173.582,135.913 174.638,135.860 175.311,136.467 ZM163.674,128.153 C163.075,128.831 162.023,128.891 161.344,128.285 C160.659,127.676 160.601,126.646 161.212,125.961 C161.824,125.277 162.855,125.215 163.536,125.821 C164.212,126.423 164.274,127.473 163.674,128.153 ZM98.690,69.382 C99.312,68.726 100.370,68.695 101.030,69.314 C101.692,69.934 101.728,70.985 101.108,71.648 C100.487,72.313 99.443,72.345 98.775,71.721 C98.114,71.101 98.074,70.030 98.690,69.382 ZM111.122,80.702 C111.718,80.019 112.770,79.949 113.454,80.545 C114.138,81.143 114.214,82.194 113.622,82.881 C113.038,83.559 111.973,83.628 111.287,83.032 C110.600,82.435 110.526,81.386 111.122,80.702 ZM122.908,91.342 C123.518,90.655 124.548,90.589 125.231,91.193 C125.915,91.797 125.976,92.828 125.368,93.515 C124.756,94.207 123.735,94.273 123.048,93.665 C122.360,93.057 122.298,92.028 122.908,91.342 ZM134.800,104.288 C134.128,103.678 134.075,102.618 134.684,101.953 C135.293,101.286 136.348,101.239 137.020,101.850 C137.694,102.463 137.744,103.509 137.131,104.182 C136.518,104.858 135.478,104.905 134.800,104.288 ZM151.915,117.506 C151.319,118.188 150.266,118.253 149.582,117.652 C148.896,117.049 148.825,116.002 149.425,115.320 C150.023,114.640 151.076,114.574 151.758,115.174 C152.441,115.774 152.512,116.824 151.915,117.506 ZM219.612,157.376 C220.197,156.714 221.302,156.643 221.963,157.227 C222.605,157.795 222.680,158.945 222.116,159.591 C221.546,160.245 220.429,160.305 219.762,159.717 C219.085,159.121 219.016,158.052 219.612,157.376 ZM108.206,35.225 C108.830,34.547 109.844,34.508 110.526,35.135 C111.211,35.766 111.248,36.762 110.612,37.451 C109.979,38.138 108.985,38.178 108.298,37.543 C107.617,36.915 107.578,35.909 108.206,35.225 ZM120.110,48.221 C119.416,47.618 119.334,46.588 119.924,45.894 C120.509,45.208 121.562,45.136 122.253,45.737 C122.949,46.343 123.028,47.370 122.432,48.059 C121.836,48.750 120.802,48.821 120.110,48.221 ZM134.898,59.347 C134.306,60.025 133.253,60.087 132.569,59.484 C131.875,58.872 131.803,57.848 132.405,57.160 C133.004,56.476 134.043,56.412 134.731,57.018 C135.420,57.624 135.495,58.662 134.898,59.347 ZM144.208,67.780 C144.832,67.099 145.845,67.057 146.528,67.682 C147.210,68.306 147.253,69.318 146.627,70.001 C146.002,70.682 144.994,70.725 144.310,70.099 C143.630,69.477 143.585,68.459 144.208,67.780 ZM155.937,78.443 C156.529,77.758 157.576,77.691 158.264,78.293 C158.959,78.900 159.034,79.925 158.436,80.616 C157.836,81.307 156.805,81.375 156.113,80.769 C155.418,80.161 155.341,79.134 155.937,78.443 ZM170.734,91.748 C171.352,91.083 172.390,91.049 173.065,91.673 C173.737,92.294 173.781,93.339 173.163,94.002 C172.540,94.669 171.511,94.702 170.834,94.076 C170.159,93.452 170.114,92.415 170.734,91.748 ZM209.202,126.529 C208.609,127.203 207.551,127.260 206.870,126.653 C206.184,126.043 206.114,125.002 206.713,124.325 C207.313,123.648 208.358,123.591 209.043,124.198 C209.730,124.807 209.801,125.847 209.202,126.529 ZM194.316,112.984 C194.970,112.339 195.986,112.344 196.648,112.995 C197.299,113.637 197.302,114.670 196.655,115.321 C196.009,115.971 194.994,115.968 194.328,115.315 C193.679,114.678 193.673,113.617 194.316,112.984 ZM182.541,102.369 C183.177,101.708 184.195,101.696 184.863,102.340 C185.523,102.976 185.541,104.019 184.903,104.668 C184.261,105.321 183.242,105.331 182.576,104.689 C181.912,104.051 181.897,103.038 182.541,102.369 ZM218.488,134.996 C219.104,134.290 220.102,134.217 220.799,134.826 C221.504,135.441 221.574,136.438 220.961,137.137 C220.341,137.844 219.352,137.916 218.652,137.305 C217.947,136.691 217.876,135.696 218.488,134.996 ZM230.243,145.618 C230.833,144.934 231.884,144.869 232.573,145.469 C233.351,146.146 233.269,147.161 232.760,147.807 C232.224,148.487 231.096,148.534 230.422,147.946 C229.728,147.339 229.649,146.307 230.243,145.618 ZM229.172,123.177 C229.797,122.508 230.845,122.467 231.500,123.086 C232.160,123.709 232.185,124.740 231.557,125.416 C230.934,126.087 229.895,126.125 229.233,125.502 C228.567,124.874 228.541,123.853 229.172,123.177 ZM240.909,133.819 C241.512,133.164 242.603,133.114 243.256,133.713 C243.901,134.306 243.960,135.435 243.378,136.072 C242.789,136.718 241.684,136.759 241.024,136.160 C240.354,135.553 240.302,134.481 240.909,133.819 ZM217.365,112.543 C217.962,111.884 219.051,111.831 219.710,112.427 C220.369,113.023 220.424,114.114 219.827,114.774 C219.224,115.441 218.153,115.491 217.486,114.882 C216.816,114.271 216.761,113.208 217.365,112.543 ZM204.897,101.275 C205.499,100.612 206.579,100.557 207.240,101.154 C207.910,101.759 207.960,102.817 207.352,103.491 C206.742,104.168 205.696,104.222 205.020,103.613 C204.349,103.007 204.293,101.941 204.897,101.275 ZM183.835,82.197 C183.243,82.877 182.184,82.946 181.500,82.349 C180.817,81.753 180.746,80.695 181.342,80.014 C181.933,79.339 183.007,79.267 183.683,79.857 C184.354,80.443 184.424,81.520 183.835,82.197 ZM169.062,68.862 C168.458,69.540 167.407,69.600 166.728,68.996 C166.053,68.395 165.991,67.330 166.591,66.658 C167.185,65.993 168.268,65.931 168.934,66.524 C169.603,67.119 169.662,68.190 169.062,68.862 ZM251.548,122.054 C252.079,121.491 253.107,121.218 253.857,121.994 C254.546,122.622 254.636,123.689 254.005,124.308 C253.361,124.940 252.343,125.020 251.660,124.386 C250.992,123.767 250.929,122.712 251.548,122.054 ZM217.998,91.715 C217.390,92.398 216.360,92.459 215.675,91.853 C214.995,91.251 214.917,90.197 215.521,89.526 C216.104,88.878 217.161,88.725 217.825,89.419 C218.550,90.066 218.621,91.014 217.998,91.715 ZM165.487,44.243 C166.120,43.552 167.069,43.527 167.783,44.180 C168.496,44.831 168.542,45.775 167.897,46.472 C167.272,47.146 166.253,47.186 165.578,46.564 C164.907,45.944 164.866,44.919 165.487,44.243 ZM153.690,33.612 C154.182,33.057 155.250,32.758 155.996,33.524 C156.806,34.157 156.690,35.223 156.156,35.827 C155.562,36.501 154.499,36.545 153.826,35.940 C153.147,35.329 153.089,34.292 153.690,33.612 ZM206.076,78.797 C206.876,79.431 206.761,80.489 206.213,81.098 C205.608,81.769 204.555,81.807 203.885,81.195 C203.210,80.577 203.163,79.552 203.779,78.874 C204.414,78.177 205.359,78.145 206.076,78.797 ZM191.979,68.248 C192.507,67.642 193.590,67.417 194.283,68.136 C195.000,68.775 195.078,69.746 194.466,70.437 C193.866,71.115 192.820,71.177 192.138,70.576 C191.455,69.972 191.383,68.932 191.979,68.248 ZM239.811,111.408 C240.461,110.713 241.380,110.696 242.104,111.368 C242.812,112.024 242.845,112.958 242.186,113.659 C241.555,114.330 240.543,114.359 239.870,113.725 C239.203,113.097 239.177,112.088 239.811,111.408 ZM228.013,100.764 C228.638,100.088 229.615,100.069 230.324,100.718 C231.093,101.331 231.025,102.378 230.445,103.023 C229.841,103.694 228.780,103.715 228.112,103.097 C227.447,102.480 227.402,101.425 228.013,100.764 ZM131.877,13.929 C131.244,14.603 130.233,14.635 129.561,14.002 C128.893,13.374 128.862,12.361 129.490,11.683 C130.130,10.993 131.067,10.975 131.787,11.638 C132.500,12.296 132.536,13.226 131.877,13.929 ZM143.518,22.244 C144.242,22.890 144.315,23.843 143.693,24.542 C143.089,25.221 142.050,25.282 141.368,24.678 C140.687,24.076 140.602,23.013 141.214,22.350 C141.861,21.648 142.889,21.585 143.518,22.244 ZM179.672,57.129 C179.038,57.783 178.011,57.821 177.341,57.199 C176.677,56.581 176.636,55.529 177.250,54.867 C177.730,54.350 178.787,54.021 179.559,54.826 C180.398,55.495 180.162,56.623 179.672,57.129 Z" />
</svg>